<svg width="121" height="123" viewBox="0 0 121 123" fill="none" xmlns="http://www.w3.org/2000/svg">
<path d="M107.551 59.9106C107.588 59.2974 107.745 58.7831 108.023 58.3677C108.301 57.9523 108.696 57.6219 109.208 57.3765L109.942 58.5136C109.606 58.6716 109.355 58.8625 109.188 59.0864C109.03 59.3109 108.943 59.5584 108.927 59.8289C108.903 60.2437 109.01 60.5635 109.25 60.7883C109.49 61.0131 109.926 61.1473 110.557 61.1908L116.491 61.6L116.398 63.169L110.329 62.7505C109.797 62.7138 109.311 62.5898 108.871 62.3783C108.44 62.1675 108.101 61.8589 107.854 61.4526C107.615 61.0468 107.515 60.5328 107.551 59.9106Z" fill="#00C0CC"/>
<path d="M106.115 67.0742L112.599 68.5659L112.288 70.0927L105.804 68.6011L106.115 67.0742ZM113.578 69.5972C113.634 69.3228 113.758 69.1197 113.951 68.988C114.143 68.8563 114.372 68.8208 114.636 68.8816C114.891 68.9403 115.081 69.072 115.205 69.2766C115.329 69.4812 115.363 69.7208 115.308 69.9952C115.252 70.2695 115.127 70.4726 114.935 70.6043C114.742 70.736 114.518 70.7725 114.263 70.7138C113.999 70.6531 113.804 70.5204 113.68 70.3157C113.556 70.1111 113.522 69.8716 113.578 69.5972Z" fill="#00C0CC"/>
<path d="M104.04 75.1357C104.232 74.6192 104.536 74.1888 104.953 73.8445C105.378 73.5036 105.881 73.2926 106.46 73.2115C107.047 73.1339 107.678 73.2361 108.354 73.5179C109.037 73.8032 109.564 74.1847 109.936 74.6625C110.315 75.1437 110.547 75.6609 110.63 76.214C110.722 76.7706 110.671 77.3071 110.479 77.8236C110.284 78.3486 109.974 78.7815 109.549 79.1224C109.132 79.4667 108.63 79.6777 108.042 79.7553C107.463 79.8364 106.832 79.7342 106.148 79.4489C105.473 79.1671 104.946 78.7855 104.566 78.3043C104.195 77.8266 103.963 77.3094 103.872 76.7528C103.789 76.1997 103.845 75.6607 104.04 75.1357ZM105.215 75.6263C105.045 76.0835 105.099 76.5217 105.376 76.9407C105.654 77.3598 106.097 77.6963 106.706 77.9503C107.322 78.2078 107.867 78.2836 108.34 78.1777C108.813 78.0718 109.134 77.7902 109.304 77.333C109.474 76.8758 109.42 76.4377 109.143 76.0186C108.862 75.608 108.413 75.274 107.796 75.0165C107.188 74.7625 106.649 74.6842 106.179 74.7817C105.706 74.8876 105.385 75.1691 105.215 75.6263Z" fill="#00C0CC"/>
<path d="M96.5614 89.7409C97.0181 89.1578 97.5656 88.7439 98.2039 88.4994C98.8422 88.2549 99.5277 88.2135 100.26 88.3752C100.994 88.5499 101.728 88.9585 102.462 89.6009C103.19 90.2374 103.7 90.9239 103.994 91.6604C104.289 92.41 104.384 93.1456 104.277 93.8671C104.177 94.5946 103.898 95.2499 103.442 95.8331C103.096 96.274 102.705 96.5908 102.268 96.7834C101.83 96.9761 101.413 97.0845 101.016 97.1087L100.769 95.7781C101.085 95.7549 101.381 95.6778 101.655 95.5465C101.931 95.4283 102.175 95.2341 102.387 94.9639C102.682 94.587 102.848 94.1629 102.885 93.6917C102.923 93.2336 102.828 92.7616 102.602 92.2756C102.37 91.7968 102.002 91.3373 101.499 90.8971C100.737 90.2309 100.003 89.8817 99.2948 89.8494C98.5936 89.8232 98.0146 90.1016 97.5579 90.6848C97.3128 90.9977 97.1568 91.3286 97.0898 91.6774C97.0296 92.0322 97.0235 92.3984 97.0715 92.776L95.8091 92.7861C95.7192 92.228 95.7341 91.6897 95.8537 91.1712C95.9746 90.6657 96.2105 90.1889 96.5614 89.7409Z" fill="#00C0CC"/>
<path d="M92.7785 94.6961L96.9517 99.8773L95.9941 100.737L95.174 99.8918L95.1337 99.9281C95.2309 100.423 95.2261 100.87 95.1191 101.269C95.0177 101.675 94.836 101.996 94.5739 102.231C94.3387 102.443 94.1222 102.576 93.9244 102.633L93.2761 101.396C93.3861 101.346 93.4838 101.295 93.569 101.242C93.6543 101.19 93.7507 101.116 93.8582 101.019C94.0531 100.844 94.1929 100.579 94.2776 100.224C94.368 99.8762 94.3318 99.4358 94.1691 98.903L91.6192 95.7374L92.7785 94.6961Z" fill="#00C0CC"/>
<path d="M84.9859 100.953C85.505 100.625 86.0415 100.446 86.5953 100.416C87.1536 100.394 87.682 100.529 88.1807 100.822C88.6839 101.123 89.1162 101.592 89.4777 102.228C89.8347 102.856 90.0205 103.475 90.0351 104.085C90.042 104.7 89.9161 105.255 89.6575 105.749C89.3988 106.244 89.0519 106.629 88.6167 106.904C88.1052 107.228 87.6107 107.38 87.1333 107.362C86.6603 107.351 86.2178 107.193 85.8056 106.888C85.398 106.591 85.0402 106.171 84.7322 105.629C84.5715 105.347 84.4657 105.115 84.4146 104.933L87.9876 102.674C87.6364 102.202 87.2316 101.919 86.7732 101.824C86.3148 101.73 85.8604 101.825 85.4099 102.11C85.1656 102.265 84.9605 102.442 84.7945 102.643C84.6254 102.857 84.4757 103.096 84.3454 103.36L83.4168 102.794C83.5813 102.444 83.7943 102.107 84.0556 101.781C84.317 101.456 84.6271 101.18 84.9859 100.953ZM88.5212 103.586L86.0247 105.164C86.2791 105.612 86.5731 105.901 86.9068 106.032C87.2449 106.17 87.6049 106.119 87.9866 105.877C88.3149 105.67 88.5374 105.358 88.6541 104.943C88.7677 104.54 88.7234 104.088 88.5212 103.586Z" fill="#00C0CC"/>
<path d="M78.4283 104.711C78.9663 104.499 79.468 104.496 79.9334 104.701C80.3905 104.909 80.7156 105.286 80.9089 105.831C81.1475 106.503 81.0417 107.137 80.5915 107.731C80.1444 108.334 79.3104 108.953 78.0894 109.588C78.2156 109.917 78.405 110.168 78.6577 110.34C78.905 110.524 79.2388 110.533 79.6591 110.368C79.9617 110.249 80.2389 110.072 80.4909 109.837C80.7344 109.605 80.9647 109.35 81.1816 109.07L82.06 109.845C81.7939 110.202 81.4752 110.546 81.1039 110.876C80.7241 111.21 80.2905 111.473 79.8029 111.665C79.0296 111.969 78.3707 111.961 77.8264 111.642C77.2766 111.334 76.8462 110.742 76.5352 109.865L75.217 106.149L76.4148 105.678L76.7603 106.328L76.8107 106.308C77.0036 105.96 77.231 105.643 77.4931 105.356C77.7467 105.071 78.0585 104.857 78.4283 104.711ZM78.3695 106.044C78.1173 106.143 77.9115 106.292 77.752 106.491C77.5872 106.701 77.4248 106.959 77.2649 107.264L77.7632 108.669C78.5646 108.228 79.0899 107.832 79.3392 107.481C79.5915 107.14 79.6618 106.811 79.5501 106.496C79.4504 106.215 79.2939 106.044 79.0805 105.983C78.8671 105.921 78.6301 105.941 78.3695 106.044Z" fill="#00C0CC"/>
<path d="M69.3863 107.668C70.1395 107.518 70.7148 107.63 71.1122 108.003C71.5023 108.386 71.7605 108.928 71.8869 109.631L72.4483 112.751L73.3787 112.567L73.585 113.714L72.5868 113.981L72.7222 115.804L71.4463 116.057L71.1248 114.27L69.4633 114.599L69.245 113.386L70.9064 113.057L70.345 109.936C70.2075 109.172 69.833 108.85 69.2216 108.971C69.1064 108.994 68.9892 109.031 68.8699 109.082C68.7523 109.142 68.6523 109.199 68.5701 109.252L68.1003 108.171C68.2664 108.074 68.4606 107.98 68.683 107.89C68.8949 107.793 69.1293 107.719 69.3863 107.668Z" fill="#00C0CC"/>
<path d="M64.6019 108.631L64.9614 115.275L63.4057 115.364L63.0462 108.721L64.6019 108.631ZM64.2397 116.483C64.5193 116.467 64.7491 116.535 64.9293 116.688C65.1094 116.84 65.2068 117.052 65.2214 117.323C65.2356 117.584 65.1614 117.801 64.9988 117.973C64.8363 118.145 64.6152 118.24 64.3356 118.256C64.0561 118.272 63.8262 118.204 63.6461 118.051C63.466 117.899 63.3688 117.692 63.3547 117.43C63.34 117.159 63.414 116.938 63.5765 116.766C63.7391 116.594 63.9602 116.499 64.2397 116.483Z" fill="#00C0CC"/>
<path d="M57.54 108.798L59.2333 115.667L57.6568 115.5L56.9231 111.948C56.8631 111.615 56.8035 111.277 56.7444 110.935C56.6763 110.592 56.613 110.244 56.5547 109.893L56.5008 109.887C56.3705 110.219 56.2451 110.546 56.1246 110.869C55.9951 111.192 55.8705 111.51 55.7508 111.824L54.3825 115.154L52.8868 114.996L55.7479 108.609L57.54 108.798Z" fill="#00C0CC"/>
<path d="M47.6953 106.878C48.2825 107.058 48.778 107.352 49.1818 107.759C49.5832 108.175 49.8544 108.673 49.9954 109.255C50.134 109.845 50.1072 110.493 49.9148 111.199C49.7249 111.896 49.4229 112.455 49.0088 112.876C48.5861 113.294 48.1134 113.57 47.5907 113.702C47.0681 113.834 46.5606 113.825 46.0683 113.674C45.4897 113.497 45.0417 113.218 44.7243 112.837C44.4046 112.465 44.2083 112.018 44.1355 111.495C44.0604 110.981 44.1047 110.423 44.2685 109.822C44.354 109.508 44.4421 109.27 44.5327 109.109L48.5744 110.349C48.6596 109.761 48.5766 109.259 48.3253 108.842C48.074 108.425 47.6935 108.138 47.184 107.982C46.9076 107.897 46.6422 107.858 46.3877 107.865C46.1221 107.878 45.8526 107.923 45.579 108L45.3303 106.903C45.6871 106.796 46.069 106.733 46.476 106.716C46.883 106.7 47.2894 106.753 47.6953 106.878ZM48.3095 111.373L45.4856 110.506C45.3502 111.003 45.3525 111.424 45.4924 111.769C45.63 112.123 45.9147 112.366 46.3465 112.499C46.7178 112.613 47.0883 112.575 47.4579 112.386C47.8165 112.204 48.1004 111.866 48.3095 111.373Z" fill="#00C0CC"/>
<path d="M37.0303 102.436L32.3486 109.96L31.0586 109.062L35.0388 102.665L32.014 100.56L32.7156 99.4324L37.0303 102.436Z" fill="#00C0CC"/>
<path d="M29.0277 96.0082C29.4339 96.4195 29.6458 96.8908 29.6632 97.4219C29.6744 97.9467 29.4857 98.4231 29.0973 98.8513C28.6179 99.3799 28.0287 99.5663 27.3298 99.4105C26.6248 99.2614 25.7445 98.7551 24.689 97.8916C24.4587 98.159 24.322 98.4506 24.279 98.7665C24.2236 99.0826 24.3546 99.4014 24.6719 99.7228C24.9004 99.9542 25.1682 100.135 25.4754 100.267C25.7761 100.392 26.0919 100.493 26.4228 100.571L26.1217 101.749C25.7037 101.66 25.2751 101.515 24.8361 101.314C24.3908 101.107 23.984 100.817 23.6159 100.444C23.0319 99.8527 22.764 99.2284 22.8122 98.5712C22.848 97.9143 23.1784 97.2412 23.8035 96.5521L26.4526 93.6316L27.3571 94.5475L26.9416 95.1666L26.9797 95.2051C27.3591 95.2299 27.7271 95.3008 28.0836 95.418C28.4337 95.5287 28.7484 95.7254 29.0277 96.0082ZM27.8561 96.5547C27.6657 96.3619 27.4519 96.2352 27.2146 96.1746C26.9649 96.1143 26.6753 96.0778 26.3458 96.0651L25.3445 97.169C26.0581 97.7248 26.6175 98.041 27.0229 98.1177C27.4221 98.2011 27.734 98.1191 27.9586 97.8715C28.1589 97.6507 28.241 97.4259 28.2051 97.197C28.1692 96.968 28.0529 96.754 27.8561 96.5547Z" fill="#00C0CC"/>
<path d="M22.3406 88.0883C22.6934 88.6131 22.7997 89.2886 22.6596 90.1149L22.6823 90.1487L23.3218 89.8387L24.0098 90.8619L16.3534 96.5968L15.484 95.3037L17.4577 93.8253L18.3697 93.193C18.0182 93.1068 17.6878 92.9711 17.3784 92.7858C17.069 92.6005 16.821 92.3692 16.6346 92.0918C16.1708 91.4022 16.0563 90.6821 16.2908 89.9315C16.5254 89.181 17.0512 88.4997 17.8682 87.8878C18.4755 87.4329 19.0716 87.1554 19.6566 87.0554C20.2344 86.9608 20.7599 87.0067 21.2332 87.1933C21.6942 87.3777 22.0634 87.6761 22.3406 88.0883ZM21.4918 89.1299C21.2448 88.7626 20.8827 88.5717 20.4055 88.5572C19.9283 88.5427 19.3896 88.7601 18.7896 89.2096C18.2545 89.6104 17.9018 90.0154 17.7314 90.4249C17.561 90.8343 17.6169 91.2489 17.8992 91.6687C18.1613 92.0585 18.6323 92.3144 19.3122 92.4363L21.7956 90.5761C21.8236 90.2621 21.8108 89.9843 21.7571 89.7427C21.6911 89.4991 21.6027 89.2948 21.4918 89.1299Z" fill="#00C0CC"/>
<path d="M18.1718 80.7507C18.353 81.1644 18.4571 81.6157 18.4839 82.1045C18.5027 82.5973 18.4595 83.0499 18.3544 83.4624L17.1593 83.2308C17.2427 82.859 17.2856 82.5069 17.2878 82.1745C17.2901 81.8422 17.2242 81.523 17.0901 81.2168C16.9451 80.8858 16.7692 80.6753 16.5622 80.5853C16.3553 80.4953 16.1503 80.4997 15.9472 80.5985C15.7767 80.6815 15.6676 80.8149 15.62 80.9986C15.5606 81.1781 15.5338 81.3868 15.5395 81.625C15.5372 81.867 15.5425 82.1154 15.5555 82.37C15.574 82.6822 15.5722 83.0043 15.55 83.3363C15.5162 83.6639 15.4258 83.9638 15.279 84.236C15.124 84.5122 14.88 84.7313 14.547 84.8933C14.019 85.1502 13.5016 85.1611 12.9946 84.9259C12.4876 84.6908 12.0855 84.234 11.7884 83.5555C11.5999 83.1252 11.5045 82.7049 11.5021 82.2945C11.4998 81.8841 11.5376 81.5094 11.6157 81.1703L12.7567 81.4131C12.6966 81.7033 12.6708 81.9819 12.6793 82.2487C12.6761 82.5113 12.727 82.7626 12.8321 83.0025C12.9662 83.3087 13.1308 83.5046 13.326 83.5903C13.5131 83.6799 13.7 83.6793 13.8868 83.5884C14.1224 83.4738 14.2467 83.2628 14.2598 82.9552C14.273 82.6477 14.2639 82.3008 14.2327 81.9145C14.2069 81.5858 14.2092 81.2534 14.2394 80.9175C14.2615 80.5856 14.3483 80.2774 14.4996 79.9929C14.6473 79.7003 14.908 79.463 15.2816 79.2812C15.7934 79.0322 16.3208 79.0215 16.8639 79.2491C17.3988 79.4807 17.8348 79.9812 18.1718 80.7507Z" fill="#00C0CC"/>
<path d="M13.7026 60.9256C13.7002 61.5399 13.5718 62.0633 13.3172 62.4959C13.0626 62.9285 12.6863 63.2839 12.1884 63.562L11.3932 62.4749C11.7191 62.2955 11.9592 62.0887 12.1137 61.8544C12.2591 61.6201 12.3324 61.3675 12.3334 61.0965C12.335 60.681 12.2098 60.3688 11.9576 60.1601C11.7055 59.9514 11.2633 59.8458 10.631 59.8433L4.68274 59.8204L4.68881 58.2486L10.7726 58.2721C11.3055 58.2742 11.7975 58.3664 12.2484 58.5488C12.6903 58.7312 13.046 59.0171 13.3155 59.4066C13.576 59.796 13.705 60.3023 13.7026 60.9256Z" fill="#FF2E63"/>
<path d="M13.7909 54.2226L7.21682 53.202L7.45587 51.6622L14.03 52.6829L13.7909 54.2226ZM6.18591 52.2467C6.14295 52.5234 6.02797 52.734 5.84097 52.8787C5.65397 53.0234 5.42658 53.0749 5.15879 53.0333C4.89993 52.9931 4.70333 52.8758 4.56899 52.6812C4.43465 52.4867 4.38896 52.2511 4.43192 51.9743C4.47488 51.6976 4.58986 51.487 4.77686 51.3423C4.96386 51.1976 5.18679 51.1454 5.44565 51.1856C5.71343 51.2272 5.9145 51.3452 6.04884 51.5398C6.18318 51.7343 6.22887 51.9699 6.18591 52.2467Z" fill="#FF2E63"/>
<path d="M15.5202 46.495C15.3501 47.0191 15.0622 47.467 14.6567 47.8388C14.2426 48.2077 13.7446 48.4545 13.1628 48.579C12.5725 48.7009 11.9293 48.6488 11.2334 48.423C10.5289 48.1943 9.97773 47.8587 9.58001 47.4163C9.17369 46.971 8.91555 46.4789 8.80558 45.9398C8.68702 45.398 8.71278 44.8651 8.88288 44.341C9.05576 43.8083 9.34927 43.3574 9.76341 42.9885C10.169 42.6168 10.6669 42.37 11.2573 42.2482C11.839 42.1236 12.4822 42.1757 13.1867 42.4043C13.8826 42.6302 14.4338 42.9657 14.8401 43.411C15.2378 43.8535 15.496 44.3456 15.6145 44.8874C15.7245 45.4265 15.693 45.9623 15.5202 46.495ZM14.3087 46.1018C14.4593 45.6379 14.3845 45.21 14.0843 44.8182C13.7841 44.4263 13.3204 44.1286 12.6931 43.9251C12.0573 43.7187 11.5029 43.686 11.0298 43.8269C10.5567 43.9677 10.2449 44.2702 10.0943 44.7341C9.94377 45.1981 10.0186 45.626 10.3188 46.0178C10.6218 46.4011 11.0912 46.6958 11.727 46.9022C12.3542 47.1057 12.9029 47.1414 13.3732 47.0091C13.8463 46.8682 14.1581 46.5658 14.3087 46.1018Z" fill="#FF2E63"/>
<path d="M22.5761 32.4398C22.1306 33.0316 21.5825 33.4669 20.9318 33.7458C20.2811 34.0246 19.5714 34.1116 18.8027 34.0067C18.0321 33.8893 17.2498 33.5472 16.4558 32.9804C15.6691 32.4188 15.105 31.7943 14.7635 31.1067C14.4202 30.4067 14.2861 29.7064 14.3615 29.0057C14.4294 28.2997 14.6861 27.6509 15.1316 27.0591C15.4684 26.6116 15.8591 26.2803 16.3036 26.0651C16.7482 25.8498 17.176 25.717 17.587 25.6664L17.9089 26.928C17.5819 26.972 17.2791 27.0665 17.0004 27.2115C16.7198 27.344 16.4763 27.5474 16.2699 27.8217C15.982 28.2042 15.8305 28.6231 15.8156 29.0784C15.7987 29.5213 15.9199 29.9684 16.1792 30.4197C16.4439 30.8639 16.8483 31.2801 17.3923 31.6685C18.2158 32.2563 18.9959 32.5413 19.7326 32.5236C20.4619 32.5006 21.0494 32.1932 21.4948 31.6014C21.7338 31.2838 21.8795 30.9551 21.9319 30.6153C21.9769 30.2702 21.9652 29.9179 21.8967 29.5584L23.207 29.4618C23.3279 29.9919 23.339 30.5102 23.2403 31.0167C23.1397 31.5108 22.9183 31.9851 22.5761 32.4398Z" fill="#FF2E63"/>
<path d="M26.1984 27.8248L21.5345 23.0805L22.476 22.2027L23.3817 22.9694L23.4213 22.9325C23.2892 22.4631 23.2662 22.034 23.3523 21.645C23.4321 21.2496 23.6009 20.9318 23.8586 20.6916C24.0898 20.476 24.3065 20.3357 24.5085 20.2708L25.2602 21.4218C25.149 21.4761 25.0507 21.5307 24.9654 21.5856C24.88 21.6405 24.7845 21.7172 24.6788 21.8157C24.4872 21.9944 24.3585 22.2563 24.2927 22.6016C24.2206 22.9404 24.2858 23.3611 24.4885 23.8635L27.3381 26.7622L26.1984 27.8248Z" fill="#FF2E63"/>
<path d="M33.6966 21.7741C33.1853 22.1145 32.645 22.3114 32.0758 22.365C31.5013 22.4111 30.9459 22.3035 30.4094 22.0423C29.8678 21.7737 29.3868 21.3399 28.9664 20.7411C28.5512 20.1496 28.3134 19.5594 28.253 18.9704C28.2001 18.3764 28.2887 17.8346 28.5189 17.3451C28.749 16.8556 29.0783 16.4682 29.5069 16.1829C30.0107 15.8475 30.5096 15.6781 31.0037 15.6746C31.4926 15.6638 31.961 15.7967 32.409 16.0734C32.8519 16.3427 33.2523 16.7325 33.6104 17.2426C33.7973 17.5088 33.9238 17.7283 33.99 17.9012L30.471 20.2439C30.8685 20.6844 31.3073 20.9401 31.7874 21.0111C32.2675 21.082 32.7293 20.9698 33.173 20.6745C33.4136 20.5143 33.612 20.3333 33.7683 20.1316C33.927 19.9175 34.0637 19.6801 34.1785 19.4192L35.1789 19.9249C35.0351 20.2701 34.8404 20.6058 34.595 20.932C34.3495 21.2581 34.05 21.5388 33.6966 21.7741ZM29.8525 19.3864L32.3113 17.7495C32.0154 17.3281 31.6905 17.0616 31.3364 16.9502C30.9772 16.8314 30.6096 16.8971 30.2336 17.1474C29.9103 17.3626 29.7038 17.6736 29.6143 18.0804C29.527 18.4748 29.6064 18.9101 29.8525 19.3864Z" fill="#FF2E63"/>
<path d="M40.145 18.0134C39.6138 18.2414 39.1035 18.2638 38.6142 18.0807C38.1332 17.894 37.7735 17.5373 37.5352 17.0106C37.241 16.3604 37.3002 15.7355 37.7128 15.1358C38.1217 14.5279 38.9231 13.8892 40.117 13.2196C39.9634 12.9022 39.7515 12.6639 39.4812 12.5047C39.2155 12.3337 38.8751 12.3373 38.4601 12.5154C38.1612 12.6437 37.8926 12.8277 37.6542 13.0676C37.4241 13.304 37.2094 13.5632 37.0099 13.8453L36.0568 13.1192C36.3003 12.7592 36.5984 12.4102 36.951 12.0721C37.3119 11.7305 37.733 11.4564 38.2145 11.2498C38.9782 10.9221 39.6492 10.9044 40.2276 11.1967C40.8105 11.4772 41.2938 12.0413 41.6774 12.889L43.3029 16.4813L42.12 16.9889L41.7188 16.365L41.669 16.3864C41.4993 16.7344 41.2921 17.0543 41.0475 17.346C40.8111 17.6342 40.5103 17.8566 40.145 18.0134ZM40.103 16.7046C40.352 16.5978 40.5501 16.444 40.6972 16.2433C40.8488 16.0308 40.9943 15.7718 41.1336 15.4663L40.5192 14.1084C39.7375 14.5716 39.2332 14.9797 39.0063 15.3326C38.7756 15.6772 38.7292 16.0018 38.867 16.3063C38.9899 16.5779 39.1623 16.7398 39.3842 16.792C39.606 16.8442 39.8456 16.8151 40.103 16.7046Z" fill="#FF2E63"/>
<path d="M48.8214 14.8823C48.0762 15.0671 47.4897 14.9846 47.0621 14.6347C46.6409 14.2739 46.34 13.7483 46.1594 13.0579L45.357 9.99053L44.4364 10.2189L44.1415 9.09158L45.1238 8.77807L44.8484 6.97586L46.1109 6.66264L46.5704 8.41918L48.2143 8.01135L48.5264 9.20422L46.8825 9.61206L47.6849 12.6795C47.8816 13.431 48.2823 13.7317 48.8873 13.5817C49.0013 13.5534 49.1162 13.5109 49.2321 13.4542C49.3457 13.3888 49.4417 13.3278 49.5203 13.2711L50.0748 14.32C49.9154 14.4247 49.7275 14.5272 49.511 14.6274C49.3055 14.7342 49.0756 14.8192 48.8214 14.8823Z" fill="#FF2E63"/>
<path d="M53.5166 13.6938L52.7287 7.08777L54.277 6.91264L55.0649 13.5187L53.5166 13.6938ZM53.3716 5.84237C53.0933 5.87385 52.8593 5.8185 52.6695 5.67634C52.4797 5.53418 52.3688 5.32855 52.3367 5.05947C52.3056 4.79935 52.3658 4.57892 52.5171 4.39818C52.6683 4.21744 52.8831 4.11133 53.1614 4.07986C53.4396 4.04839 53.6736 4.10373 53.8634 4.24589C54.0532 4.38806 54.1637 4.5892 54.1947 4.84931C54.2268 5.1184 54.1672 5.34331 54.0159 5.52405C53.8646 5.70479 53.6498 5.8109 53.3716 5.84237Z" fill="#FF2E63"/>
<path d="M60.7868 13.083L58.7351 6.34825L60.3192 6.40782L61.2385 9.89998C61.3159 10.2283 61.3931 10.5612 61.4701 10.8985C61.5561 11.2362 61.6375 11.5782 61.7142 11.9246L61.7683 11.9267C61.8812 11.5874 61.9894 11.2525 62.0929 10.9219C62.2055 10.5917 62.3133 10.2658 62.4165 9.94427L63.6095 6.53154L65.1124 6.58805L62.5877 13.1507L60.7868 13.083Z" fill="#FF2E63"/>
<path d="M70.8761 14.2191C70.2763 14.0868 69.7645 13.8351 69.3408 13.4641C68.9191 13.0843 68.6255 12.6126 68.4599 12.0488C68.2963 11.4762 68.2975 10.8336 68.4633 10.1209C68.627 9.4171 68.9094 8.84118 69.3104 8.39317C69.7202 7.94711 70.1862 7.63832 70.7084 7.46678C71.2305 7.29525 71.743 7.26496 72.2458 7.3759C72.8368 7.50631 73.3 7.74728 73.6356 8.09881C73.9731 8.44154 74.1891 8.86844 74.2835 9.3795C74.3799 9.88177 74.3575 10.4364 74.2163 11.0435C74.1426 11.3602 74.0632 11.6017 73.9782 11.7679L69.85 10.857C69.7875 11.4445 69.8914 11.9345 70.1617 12.3272C70.4321 12.7198 70.8274 12.9736 71.3479 13.0884C71.6301 13.1507 71.8996 13.1685 72.1562 13.1419C72.4236 13.1084 72.6938 13.0431 72.9668 12.9461L73.2617 14.0102C72.9059 14.1444 72.523 14.2357 72.113 14.2839C71.703 14.3322 71.2907 14.3106 70.8761 14.2191ZM70.0763 9.82475L72.9607 10.4612C73.0774 9.95972 73.0582 9.54388 72.9032 9.21368C72.7502 8.87468 72.4532 8.65653 72.0122 8.55921C71.6329 8.47551 71.2605 8.54135 70.8951 8.75671C70.5406 8.96522 70.2676 9.32124 70.0763 9.82475Z" fill="#FF2E63"/>
<path d="M81.7595 17.3861L86.2704 9.75869L87.6412 10.5276L83.8063 17.012L87.0207 18.8149L86.3448 19.9578L81.7595 17.3861Z" fill="#FF2E63"/>
<path d="M90.3631 22.7663C89.9182 22.3973 89.672 21.9586 89.6248 21.4501C89.5846 20.9475 89.7547 20.4786 90.1353 20.0434C90.605 19.5062 91.2076 19.2904 91.9431 19.3958C92.6845 19.4945 93.6277 19.9248 94.7728 20.6868C94.9978 20.4158 95.124 20.1275 95.1514 19.8218C95.1917 19.515 95.0381 19.2175 94.6904 18.9291C94.4401 18.7215 94.1516 18.5644 93.825 18.4578C93.5054 18.357 93.1714 18.2794 92.823 18.2251L93.0717 17.0764C93.5114 17.136 93.9651 17.2483 94.4327 17.4132C94.9072 17.5839 95.3461 17.8364 95.7494 18.1709C96.3891 18.7014 96.7018 19.2834 96.6877 19.9168C96.6864 20.5493 96.3795 21.2157 95.7671 21.9161L93.1715 24.8842L92.1806 24.0625L92.5789 23.4425L92.5371 23.4079C92.1412 23.408 91.7546 23.3631 91.3774 23.2732C91.0072 23.189 90.6691 23.0201 90.3631 22.7663ZM91.5518 22.1684C91.7604 22.3414 91.9898 22.4495 92.2399 22.4927C92.5029 22.5348 92.8061 22.5517 93.1494 22.5431L94.1306 21.4212C93.358 20.9329 92.7588 20.6647 92.333 20.6166C91.9132 20.5618 91.5933 20.6601 91.3732 20.9117C91.177 21.1361 91.1038 21.3569 91.1537 21.5743C91.2036 21.7916 91.3363 21.9896 91.5518 22.1684Z" fill="#FF2E63"/>
<path d="M97.7467 29.643C97.3446 29.155 97.1874 28.51 97.2752 27.7078L97.2494 27.6765L96.6081 28.0058L95.8239 27.0543L103.361 21.1635L104.352 22.3659L102.409 23.8845L101.508 24.5374C101.878 24.6033 102.23 24.7179 102.563 24.8812C102.897 25.0446 103.17 25.2552 103.383 25.5132C103.911 26.1545 104.08 26.842 103.889 27.5758C103.698 28.3096 103.2 28.9907 102.396 29.6193C101.798 30.0866 101.2 30.3825 100.6 30.5071C100.008 30.6262 99.4601 30.6074 98.9566 30.4509C98.466 30.2957 98.0627 30.0264 97.7467 29.643ZM98.5541 28.5994C98.8356 28.9409 99.2242 29.1071 99.7198 29.098C100.215 29.0888 100.759 28.8534 101.349 28.3917C101.876 27.9801 102.213 27.5731 102.362 27.1707C102.51 26.7684 102.423 26.3721 102.101 25.9817C101.803 25.6192 101.297 25.3958 100.583 25.3113L98.1387 27.2221C98.1315 27.5257 98.1641 27.7925 98.2365 28.0224C98.3219 28.2537 98.4277 28.446 98.5541 28.5994Z" fill="#FF2E63"/>
<path d="M102.549 36.1882C102.331 35.7927 102.188 35.3575 102.122 34.8824C102.064 34.4032 102.073 33.9605 102.148 33.5544L103.39 33.7302C103.333 34.0959 103.317 34.4406 103.341 34.7644C103.365 35.0883 103.458 35.3965 103.619 35.6891C103.794 36.0055 103.991 36.2032 104.21 36.2823C104.429 36.3614 104.638 36.3486 104.838 36.2439C105.006 36.156 105.108 36.0215 105.142 35.8405C105.188 35.6633 105.199 35.4588 105.175 35.2271C105.158 34.9912 105.133 34.7495 105.099 34.502C105.056 34.1986 105.032 33.8848 105.029 33.5605C105.038 33.24 105.106 32.9441 105.235 32.6728C105.372 32.3974 105.605 32.1738 105.933 32.0021C106.453 31.7299 106.982 31.6978 107.519 31.9057C108.057 32.1137 108.505 32.5419 108.863 33.1905C109.089 33.6018 109.22 34.0072 109.255 34.4069C109.29 34.8066 109.281 35.1732 109.228 35.5068L108.04 35.3177C108.079 35.0325 108.083 34.7601 108.054 34.5005C108.036 34.2446 107.964 34.0019 107.838 33.7726C107.676 33.4799 107.492 33.2959 107.286 33.2206C107.087 33.141 106.896 33.1494 106.712 33.2457C106.479 33.3672 106.369 33.5779 106.38 33.878C106.391 34.1781 106.427 34.5157 106.49 34.8906C106.542 35.2098 106.566 35.5336 106.562 35.8621C106.565 36.1864 106.501 36.4902 106.368 36.7736C106.24 37.0648 105.992 37.3068 105.624 37.4994C105.12 37.7632 104.58 37.7956 104.006 37.5965C103.44 37.3932 102.955 36.9237 102.549 36.1882Z" fill="#FF2E63"/>
<path d="M108.731 44.1731H107.461V50.9479H108.731V44.1731Z" fill="#03007F"/>
<path d="M111.483 48.1957V46.9254H104.709V48.1957H111.483Z" fill="#03007F"/>
<path d="M110.94 45.6147L110.042 44.7164L105.251 49.507L106.15 50.4052L110.94 45.6147Z" fill="#03007F"/>
<path d="M110.042 50.4047L110.94 49.5065L106.15 44.7159L105.251 45.6142L110.042 50.4047Z" fill="#03007F"/>
<path d="M10.4967 67.885H9.22638V74.6598H10.4967V67.885Z" fill="#03007F"/>
<path d="M13.2489 71.9076V70.6373H6.47411V71.9076H13.2489Z" fill="#03007F"/>
<path d="M12.7057 69.3266L11.8075 68.4283L7.01694 73.2189L7.91516 74.1171L12.7057 69.3266Z" fill="#03007F"/>
<path d="M11.8073 74.1166L12.7056 73.2184L7.91504 68.4279L7.01682 69.3261L11.8073 74.1166Z" fill="#03007F"/>
</svg>
