<svg width="135" height="163" viewBox="0 0 135 163" fill="none" xmlns="http://www.w3.org/2000/svg">
<path d="M134.968 77.7778H0V118.904H134.968V77.7778Z" fill="#FF2E63"/>
<path d="M15.0751 92.9381C15.0751 91.0637 15.0269 89.6248 14.9757 88.8567C14.7799 87.3207 13.7468 86.3114 12.3221 86.3114C11.045 86.3114 10.1595 87.0794 9.81614 88.4242C9.66855 89.048 9.56915 90.587 9.56915 93.2765V103.461C9.56915 106.536 9.66855 107.881 9.91252 108.552C10.3071 109.705 11.1896 110.376 12.3221 110.376C13.7468 110.376 14.7799 109.32 14.9275 107.687C15.0269 106.821 15.0751 104.467 15.0751 103.028H20.0419V104.853C20.0419 108.166 19.8461 109.417 18.9124 111.097C17.6835 113.451 15.2739 114.843 12.3733 114.843C10.0631 114.843 7.9487 113.931 6.6204 112.298C4.99693 110.376 4.65356 108.79 4.65356 103.796V92.9411C4.65356 87.8974 4.99693 86.3114 6.6204 84.3898C7.9487 82.7567 10.0631 81.8445 12.3733 81.8445C15.2257 81.8445 17.6835 83.1422 18.9124 85.3521C19.7979 86.9381 20.0419 88.0887 20.0419 91.2108V92.9411H15.0751V92.9381Z" fill="white"/>
<path d="M27.5629 114.36H22.6473V82.3213H29.5297C35.2345 82.3213 37.7404 85.2021 37.7404 91.5905C37.7404 95.722 36.8549 97.9319 34.4453 99.6592L38.2314 114.358H33.0206L29.9243 100.957H27.5629V114.358V114.36ZM29.1351 96.4929C30.8068 96.4929 31.4454 96.2516 31.9875 95.4836C32.4785 94.7156 32.8218 93.2737 32.8218 91.6406C32.8218 89.9103 32.4785 88.3742 31.8399 87.6533C31.349 86.9795 30.7104 86.7882 29.1351 86.7882H27.5629V96.49H29.1351V96.4929Z" fill="white"/>
<path d="M54.1619 86.7882H45.7042V95.5307H51.8005V99.9976H45.7042V109.894H54.1619V114.36H40.7886V82.3213H54.1619V86.7882Z" fill="white"/>
<path d="M62.3726 107.298L61.2431 114.36H56.3757L61.7341 82.3213H68.1256L73.8303 114.36H68.7671L67.6376 107.298H62.3757H62.3726ZM64.9298 90.0545L63.0624 102.831H66.8967L64.9298 90.0545Z" fill="white"/>
<path d="M83.0711 114.36H78.1555V86.7882H72.9448V82.3213H88.3813V86.7882H83.0711V114.36Z" fill="white"/>
<path d="M95.3601 114.36H90.4445V82.3213H95.3601V114.36Z" fill="white"/>
<path d="M103.917 114.36L97.6251 82.3213H102.64L106.426 102.831L109.77 82.3213H114.637L109.032 114.36H103.917Z" fill="white"/>
<path d="M130.317 86.7882H121.86V95.5307H127.956V99.9976H121.86V109.894H130.317V114.36H116.944V82.3213H130.317V86.7882Z" fill="white"/>
<path d="M66.9999 0.777832C45.8979 0.777832 28.7877 17.4938 28.7877 38.1097C28.7877 58.7256 45.8979 75.4416 66.9999 75.4416C88.102 75.4416 105.212 58.7256 105.212 38.1097C105.212 17.4938 88.102 0.777832 66.9999 0.777832Z" fill="#03007F"/>
<path d="M55.7846 23.2954H54.5105C52.0935 23.2954 50.7702 24.6257 50.7702 27.2915V40.1397C50.7702 43.4465 49.6273 44.6058 46.9424 44.6058C44.8316 44.6058 43.1146 43.703 41.753 42.0682C41.6218 41.8973 38.8494 43.1848 38.8494 46.3634C38.8494 49.7985 42.1467 51.9034 48.2602 51.9034C55.6916 51.9034 59.6069 48.2492 59.6069 40.2625V27.2861C59.6069 24.6203 58.289 23.2901 55.7791 23.2901L55.7846 23.2954ZM67.2953 29.781H66.4149C64.2604 29.781 62.6308 30.7693 62.6308 33.777V47.5227C62.6308 50.5731 64.2166 51.5187 66.5024 51.5187H67.3828C69.5373 51.5187 71.0738 50.4877 71.0738 47.5227V33.777C71.0738 30.6838 69.581 29.781 67.2898 29.781H67.2953ZM66.8141 19.8123C64.0854 19.8123 62.3738 21.3134 62.3738 23.6801C62.3738 26.0467 64.1346 27.5906 66.9453 27.5906C69.756 27.5906 71.3855 26.0894 71.3855 23.6801C71.3855 21.2707 69.6248 19.8123 66.8141 19.8123ZM85.4007 29.5619C78.1881 29.5619 73.3924 34.0281 73.3924 40.6899C73.3924 47.3517 78.0076 51.9034 85.264 51.9034C92.5204 51.9034 97.2286 47.5227 97.2286 40.7327C97.2286 33.9426 92.5204 29.5619 85.4007 29.5619ZM85.3132 45.5888C82.4971 45.5888 80.5613 43.5694 80.5613 40.6899C80.5613 37.8104 82.5408 35.8338 85.3132 35.8338C88.0856 35.8338 90.0597 37.8532 90.0597 40.7327C90.0597 43.6121 88.0364 45.5888 85.3132 45.5888Z" fill="white"/>
<path d="M106.77 121.778H28V162.904H106.77V121.778Z" fill="#00C0CC"/>
<path d="M45.6263 158.775H32.2108V125.915H37.2529V154.197H45.6233V158.778L45.6263 158.775Z" fill="white"/>
<path d="M53.593 151.534L52.4334 158.775H47.4395L52.9364 125.912H59.4936L65.3429 158.775H60.1472L58.9875 151.534H53.59H53.593ZM56.2165 133.846L54.3009 146.952H58.2345L56.2165 133.846Z" fill="white"/>
<path d="M67.864 125.915H74.8729C80.421 125.915 83.2433 128.773 83.2433 134.44C83.2433 137.889 82.2342 140.057 79.7132 141.782C82.6378 143.212 83.8487 145.625 83.8487 149.959C83.8487 153.261 83.0414 155.624 81.3788 157.154C80.0174 158.387 78.6048 158.778 75.3277 158.778H67.864V125.915ZM73.9663 139.513C75.5295 139.513 76.2343 139.316 76.9421 138.674C77.8487 137.836 78.3036 136.506 78.3036 134.634C78.3036 131.827 77.1951 130.497 74.8247 130.497H72.9091V139.513H73.9693H73.9663ZM74.7735 154.197C77.5988 154.197 78.8066 152.817 78.8066 149.418C78.8066 147.299 78.2524 145.675 77.1921 144.836C76.5355 144.295 75.7283 144.098 74.1651 144.098H72.903V154.197H74.7705H74.7735Z" fill="white"/>
<path d="M97.3153 133.996C97.0141 131.038 96.2551 130.005 94.3907 130.005C92.6769 130.005 91.5654 131.286 91.5654 133.257C91.5654 135.523 92.472 136.853 96.0533 140.105C101.297 144.786 102.559 146.855 102.559 150.845C102.559 155.871 99.3304 159.27 94.5925 159.27C89.8546 159.27 86.3727 155.771 86.2221 150.401L91.0142 149.562C91.1648 153.011 92.3244 154.685 94.5955 154.685C96.4629 154.685 97.6707 153.305 97.6707 151.089C97.6707 149.856 97.2159 148.676 96.3605 147.543C95.5533 146.508 95.2521 146.163 92.4268 143.65C88.192 139.807 86.6769 137.197 86.6769 133.551C86.6769 128.672 89.8546 125.421 94.5955 125.421C99.0322 125.421 101.604 128.081 102.21 133.304L97.3183 133.993L97.3153 133.996Z" fill="white"/>
</svg>
