<svg width="285" height="47" viewBox="0 0 285 47" fill="none" xmlns="http://www.w3.org/2000/svg">
<g clip-path="url(#clip0_1_1425)">
<path d="M285 0.777832H197.25V46.7778H285V0.777832Z" fill="#00C0CC"/>
<path d="M216.886 42.1601H201.941V5.40552H207.558V37.0387H216.882V42.1634L216.886 42.1601Z" fill="white"/>
<path d="M225.761 34.0599L224.469 42.16H218.906L225.029 5.4021H232.334L238.85 42.16H233.062L231.77 34.0599H225.757H225.761ZM228.683 14.2756L226.549 28.9353H230.931L228.683 14.2756Z" fill="white"/>
<path d="M241.658 5.40552H249.466C255.647 5.40552 258.791 8.60142 258.791 14.9406C258.791 18.798 257.667 21.2238 254.859 23.1525C258.117 24.7521 259.465 27.451 259.465 32.2992C259.465 35.9921 258.566 38.6351 256.714 40.3466C255.197 41.7256 253.624 42.1634 249.973 42.1634H241.658V5.40552ZM248.456 20.6149C250.198 20.6149 250.983 20.3944 251.772 19.6768C252.782 18.7388 253.288 17.2511 253.288 15.1578C253.288 12.0179 252.053 10.5302 249.413 10.5302H247.279V20.6149H248.46H248.456ZM249.356 37.0387C252.503 37.0387 253.849 35.4951 253.849 31.6936C253.849 29.3238 253.231 27.507 252.05 26.5689C251.319 25.9633 250.419 25.7428 248.678 25.7428H247.272V37.0387H249.352H249.356Z" fill="white"/>
<path d="M274.467 14.4436C274.132 11.1357 273.286 9.98047 271.209 9.98047C269.3 9.98047 268.062 11.4122 268.062 13.6174C268.062 16.1518 269.072 17.6395 273.062 21.2764C278.903 26.513 280.309 28.8268 280.309 33.2899C280.309 38.9115 276.712 42.713 271.434 42.713C266.156 42.713 262.277 38.7996 262.11 32.7929L267.448 31.8548C267.616 35.7123 268.908 37.5851 271.438 37.5851C273.518 37.5851 274.863 36.0414 274.863 33.563C274.863 32.184 274.357 30.8641 273.404 29.597C272.505 28.4384 272.169 28.0533 269.022 25.2425C264.304 20.944 262.616 18.0245 262.616 13.9466C262.616 8.48949 266.156 4.85254 271.438 4.85254C276.38 4.85254 279.246 7.82792 279.92 13.6701L274.471 14.4403L274.467 14.4436Z" fill="white"/>
<path d="M197.25 0.777832H46.8949V46.7778H197.25V0.777832Z" fill="#FF2E63"/>
<path d="M63.6886 17.7348C63.6886 15.6382 63.6349 14.0288 63.5779 13.1697C63.3598 11.4516 62.2089 10.3227 60.6218 10.3227C59.1991 10.3227 58.2126 11.1817 57.8301 12.6859C57.6657 13.3837 57.555 15.105 57.555 18.1133V29.5047C57.555 32.9442 57.6657 34.4483 57.9375 35.1988C58.377 36.489 59.3602 37.2394 60.6218 37.2394C62.2089 37.2394 63.3598 36.0578 63.5242 34.2311C63.6349 33.2635 63.6886 30.6304 63.6886 29.0209H69.2217V31.0615C69.2217 34.7676 69.0036 36.1664 67.9634 38.0458C66.5944 40.6789 63.9101 42.2357 60.6788 42.2357C58.1053 42.2357 55.7498 41.2154 54.27 39.3887C52.4615 37.2394 52.079 35.4654 52.079 29.8799V17.7381C52.079 12.0967 52.4615 10.3227 54.27 8.17344C55.7498 6.34674 58.1053 5.32642 60.6788 5.32642C63.8564 5.32642 66.5944 6.7779 67.9634 9.24971C68.9499 11.0238 69.2217 12.3107 69.2217 15.8028V17.7381H63.6886V17.7348Z" fill="white"/>
<path d="M77.6001 41.6959H72.1241V5.85962H79.7912C86.1463 5.85962 88.9379 9.08186 88.9379 16.2274C88.9379 20.8485 87.9515 23.3203 85.2671 25.2523L89.4849 41.6926H83.68L80.2307 26.7038H77.6001V41.6926V41.6959ZM79.3516 21.7108C81.2138 21.7108 81.9252 21.4409 82.5291 20.5819C83.0761 19.7228 83.4586 18.1101 83.4586 16.2833C83.4586 14.348 83.0761 12.6299 82.3647 11.8236C81.8178 11.0698 81.1065 10.8559 79.3516 10.8559H77.6001V21.7075H79.3516V21.7108Z" fill="white"/>
<path d="M107.231 10.8559H97.8096V20.6345H104.601V25.6308H97.8096V36.6996H107.231V41.6959H92.3336V5.85962H107.231V10.8559Z" fill="white"/>
<path d="M116.378 33.7967L115.12 41.6959H109.698L115.667 5.85962H122.787L129.142 41.6959H123.502L122.243 33.7967H116.382H116.378ZM119.227 14.5093L117.147 28.8004H121.418L119.227 14.5093Z" fill="white"/>
<path d="M139.437 41.6959H133.961V10.8559H128.156V5.85962H145.352V10.8559H139.437V41.6959Z" fill="white"/>
<path d="M153.126 41.6959H147.651V5.85962H153.126V41.6959Z" fill="white"/>
<path d="M162.659 41.6959L155.65 5.85962H161.236L165.454 28.8004L169.179 5.85962H174.601L168.357 41.6959H162.659Z" fill="white"/>
<path d="M192.069 10.8559H182.647V20.6345H189.439V25.6308H182.647V36.6996H192.069V41.6959H177.171V5.85962H192.069V10.8559Z" fill="white"/>
<path d="M23.4475 0.777832C10.499 0.777832 0 11.0765 0 23.7778C0 36.4792 10.499 46.7778 23.4475 46.7778C36.3959 46.7778 46.8949 36.4792 46.8949 23.7778C46.8949 11.0765 36.3959 0.777832 23.4475 0.777832Z" fill="#03007F"/>
<path d="M16.5655 14.6508H15.7837C14.3006 14.6508 13.4886 15.4704 13.4886 17.1128V25.0285C13.4886 27.0658 12.7874 27.7801 11.1399 27.7801C9.84468 27.7801 8.79109 27.2238 7.9556 26.2167C7.87507 26.1114 6.17389 26.9046 6.17389 28.8629C6.17389 30.9793 8.19719 32.2761 11.9485 32.2761C16.5085 32.2761 18.9109 30.0248 18.9109 25.1042V17.1095C18.9109 15.4671 18.1023 14.6476 16.5622 14.6476L16.5655 14.6508ZM23.6286 18.6466H23.0884C21.7664 18.6466 20.7665 19.2555 20.7665 21.1085V29.5772C20.7665 31.4565 21.7395 32.0391 23.1421 32.0391H23.6823C25.0043 32.0391 25.9472 31.4039 25.9472 29.5772V21.1085C25.9472 19.2028 25.0312 18.6466 23.6253 18.6466H23.6286ZM23.3333 12.5049C21.659 12.5049 20.6088 13.4298 20.6088 14.8878C20.6088 16.3459 21.6892 17.2971 23.4139 17.2971C25.1385 17.2971 26.1385 16.3722 26.1385 14.8878C26.1385 13.4034 25.058 12.5049 23.3333 12.5049ZM34.7383 18.5116C30.3126 18.5116 27.3699 21.2632 27.3699 25.3675C27.3699 29.4718 30.2018 32.2761 34.6544 32.2761C39.107 32.2761 41.996 29.5772 41.996 25.3938C41.996 21.2105 39.107 18.5116 34.7383 18.5116ZM34.6846 28.3857C32.9566 28.3857 31.7688 27.1415 31.7688 25.3675C31.7688 23.5935 32.9834 22.3757 34.6846 22.3757C36.3858 22.3757 37.5971 23.6198 37.5971 25.3938C37.5971 27.1679 36.3556 28.3857 34.6846 28.3857Z" fill="white"/>
</g>
<defs>
<clipPath id="clip0_1_1425">
<rect width="285" height="46" fill="white" transform="translate(0 0.777832)"/>
</clipPath>
</defs>
</svg>
